<svg width="93" height="40" viewBox="0 0 93 40" fill="none" xmlns="http://www.w3.org/2000/svg">
<g clip-path="url(#clip0_589_26)">
<path d="M19.1817 20.7288H1.73999V15.5985H22.5273L19.1817 20.7288Z" fill="white"/>
<path d="M3.34556 34.8696H20.7873V39.9999H0L3.34556 34.8696Z" fill="white"/>
<path d="M4.39771 33.1274L11.355 22.4576L17.9901 22.4601L11.0354 33.1274H4.39771Z" fill="white"/>
<path d="M56.4443 0H50.783V40H56.4443V0Z" fill="white"/>
<path d="M65.9463 15.6122H60.2849V40H65.9463V15.6122Z" fill="white"/>
<path d="M63.1154 11.258C65.1616 11.258 66.8204 9.59923 66.8204 7.55302C66.8204 5.5068 65.1616 3.84802 63.1154 3.84802C61.0692 3.84802 59.4104 5.5068 59.4104 7.55302C59.4104 9.59923 61.0692 11.258 63.1154 11.258Z" fill="white"/>
<path d="M47.078 27.2967C47.078 20.4563 42.5795 14.9094 34.4208 14.9094C27.43 14.9094 21.7637 20.4551 21.7637 27.2967C21.7637 34.1383 26.8243 39.9949 34.5166 39.9949C38.5537 39.9949 43.2574 38.949 45.5731 35.9056L42.2151 32.5066C42.2151 32.5066 40.1618 35.3149 34.4233 34.9803C28.1364 34.6147 27.7011 29.309 27.7011 29.309H47.078V27.2967ZM27.6986 25.2235C27.6986 25.2235 28.4772 19.6442 34.5166 19.6442C40.556 19.6442 41.3358 25.2235 41.3358 25.2235H27.6986Z" fill="white"/>
<path d="M72.4035 32.5202L68.8279 36.0026C68.8279 36.0026 72.5018 40.0086 78.6718 40.0086C84.8418 40.0086 88.0245 37.2264 88.221 32.9667C88.4175 28.707 86.0171 26.3602 81.3159 25.2321C76.6147 24.1041 74.9494 23.3168 75.0054 21.792C75.0613 20.2673 76.3734 19.2275 78.7365 19.3432C81.0995 19.4588 83.4066 21.7286 83.4066 21.7286L86.8429 18.4664C86.8429 18.4664 84.4413 14.78 78.4355 14.78C72.4296 14.78 69.9447 18.5497 69.9447 21.8853C69.9447 25.2209 71.3625 27.273 74.6708 28.6747C77.9791 30.0763 82.5696 29.7654 82.8108 32.7789C83.0546 35.8782 75.2877 36.3633 72.4035 32.5202Z" fill="white"/>
<path d="M90.8538 39.9502C90.4803 39.9502 90.1152 39.8394 89.8048 39.6319C89.4943 39.4244 89.2523 39.1295 89.1094 38.7845C88.9666 38.4394 88.9292 38.0597 89.0022 37.6935C89.0751 37.3272 89.2551 36.9908 89.5192 36.7268C89.7834 36.4629 90.1199 36.2831 90.4862 36.2104C90.8525 36.1377 91.2322 36.1753 91.5771 36.3184C91.9221 36.4615 92.2168 36.7036 92.4241 37.0143C92.6314 37.3249 92.7419 37.6901 92.7417 38.0635C92.7414 38.564 92.5423 39.0439 92.1883 39.3977C91.8343 39.7515 91.3543 39.9502 90.8538 39.9502ZM90.8538 36.387C90.5222 36.387 90.198 36.4853 89.9223 36.6695C89.6466 36.8537 89.4318 37.1156 89.3049 37.4219C89.178 37.7283 89.1448 38.0654 89.2095 38.3906C89.2741 38.7158 89.4338 39.0145 89.6683 39.249C89.9028 39.4834 90.2015 39.6431 90.5267 39.7078C90.8519 39.7725 91.189 39.7393 91.4953 39.6124C91.8017 39.4855 92.0635 39.2706 92.2477 38.9949C92.4319 38.7192 92.5303 38.3951 92.5303 38.0635C92.5299 37.619 92.3532 37.1927 92.0389 36.8784C91.7245 36.5641 91.2983 36.3873 90.8538 36.387Z" fill="white"/>
<path d="M90.146 36.9229H90.9681C91.0972 36.9193 91.2252 36.9471 91.3412 37.0038C91.4439 37.0546 91.5302 37.1335 91.5899 37.2314C91.6489 37.3364 91.6786 37.4554 91.6758 37.5759C91.6794 37.7163 91.6385 37.8543 91.5588 37.9701C91.4799 38.0811 91.3661 38.1626 91.2355 38.2014L91.733 39.1118H91.4121L90.9432 38.2412H90.4196V39.1118H90.146V36.9229ZM90.9432 38.0049C91.062 38.0128 91.1791 37.9735 91.2691 37.8955C91.309 37.8546 91.3398 37.8058 91.3595 37.7522C91.3792 37.6987 91.3874 37.6415 91.3835 37.5846C91.3863 37.5276 91.3766 37.4707 91.3551 37.4178C91.3336 37.365 91.3009 37.3175 91.2591 37.2786C91.1666 37.2007 91.0478 37.1611 90.927 37.1679H90.4159V38.0074L90.9432 38.0049Z" fill="white"/>
</g>
<defs>
<clipPath id="clip0_589_26">
<rect width="92.7417" height="40" fill="white"/>
</clipPath>
</defs>
</svg>
